<mxfile host="app.diagrams.net" modified="2022-11-02T10:12:30.481Z" agent="5.0 (Macintosh; Intel Mac OS X 10_15_7) AppleWebKit/605.1.15 (KHTML, like Gecko) Version/16.1 Safari/605.1.15" etag="z702g3cTvIcoTzqK5I1P" version="20.5.1" type="github">
  <diagram id="kPDA9VfYAO7xyKMvzVB0" name="第 1 页">
    <mxGraphModel dx="1393" dy="981" grid="1" gridSize="10" guides="1" tooltips="1" connect="1" arrows="1" fold="1" page="1" pageScale="1" pageWidth="827" pageHeight="1169" math="0" shadow="0">
      <root>
        <mxCell id="0" />
        <mxCell id="1" parent="0" />
        <mxCell id="HedHW2Ap92B9lxm5ix0j-6" style="rounded=0;orthogonalLoop=1;jettySize=auto;html=1;exitX=1;exitY=0.5;exitDx=0;exitDy=0;entryX=0;entryY=0.5;entryDx=0;entryDy=0;" edge="1" parent="1" source="HedHW2Ap92B9lxm5ix0j-1" target="HedHW2Ap92B9lxm5ix0j-2">
          <mxGeometry relative="1" as="geometry" />
        </mxCell>
        <mxCell id="HedHW2Ap92B9lxm5ix0j-7" style="edgeStyle=none;rounded=0;orthogonalLoop=1;jettySize=auto;html=1;exitX=1;exitY=0.5;exitDx=0;exitDy=0;entryX=0;entryY=0.5;entryDx=0;entryDy=0;" edge="1" parent="1" source="HedHW2Ap92B9lxm5ix0j-1" target="HedHW2Ap92B9lxm5ix0j-3">
          <mxGeometry relative="1" as="geometry" />
        </mxCell>
        <mxCell id="HedHW2Ap92B9lxm5ix0j-8" style="edgeStyle=none;rounded=0;orthogonalLoop=1;jettySize=auto;html=1;exitX=1;exitY=0.5;exitDx=0;exitDy=0;entryX=0;entryY=0.5;entryDx=0;entryDy=0;" edge="1" parent="1" source="HedHW2Ap92B9lxm5ix0j-1" target="HedHW2Ap92B9lxm5ix0j-4">
          <mxGeometry relative="1" as="geometry" />
        </mxCell>
        <mxCell id="HedHW2Ap92B9lxm5ix0j-1" value="APP" style="rounded=0;whiteSpace=wrap;html=1;" vertex="1" parent="1">
          <mxGeometry x="60" y="230" width="120" height="60" as="geometry" />
        </mxCell>
        <mxCell id="HedHW2Ap92B9lxm5ix0j-10" value="" style="edgeStyle=none;rounded=0;orthogonalLoop=1;jettySize=auto;html=1;" edge="1" parent="1" source="HedHW2Ap92B9lxm5ix0j-2" target="HedHW2Ap92B9lxm5ix0j-9">
          <mxGeometry relative="1" as="geometry" />
        </mxCell>
        <mxCell id="HedHW2Ap92B9lxm5ix0j-2" value="应用自定义日志切面 OR EsLog OR EsService" style="rounded=0;whiteSpace=wrap;html=1;" vertex="1" parent="1">
          <mxGeometry x="354" y="120" width="120" height="60" as="geometry" />
        </mxCell>
        <mxCell id="HedHW2Ap92B9lxm5ix0j-3" value="RecordLog" style="rounded=0;whiteSpace=wrap;html=1;" vertex="1" parent="1">
          <mxGeometry x="354" y="230" width="120" height="60" as="geometry" />
        </mxCell>
        <mxCell id="HedHW2Ap92B9lxm5ix0j-4" value="log.info/error/warn" style="rounded=0;whiteSpace=wrap;html=1;" vertex="1" parent="1">
          <mxGeometry x="354" y="350" width="120" height="60" as="geometry" />
        </mxCell>
        <mxCell id="HedHW2Ap92B9lxm5ix0j-9" value="" style="whiteSpace=wrap;html=1;rounded=0;" vertex="1" parent="1">
          <mxGeometry x="580" y="120" width="120" height="60" as="geometry" />
        </mxCell>
      </root>
    </mxGraphModel>
  </diagram>
</mxfile>
